<?xml version="1.0" encoding="utf-8"?>
<!-- Generator: Adobe Illustrator 25.4.1, SVG Export Plug-In . SVG Version: 6.00 Build 0)  -->
<svg version="1.1" id="Layer_1" xmlns="http://www.w3.org/2000/svg" xmlns:xlink="http://www.w3.org/1999/xlink" x="0px" y="0px"
	 viewBox="0 0 128 128" style="enable-background:new 0 0 128 128;" xml:space="preserve">
<style type="text/css">
	.st0{fill:#50C878;}
</style>
<g transform="translate(0.000000,128.000000) scale(0.100000,-0.100000)">
	<path class="st0" d="M585.4,1236c-13-28.7-10.4-39.1,13-71.7c16.9-22.2,28.7-57.3,28.7-84.7c0-24.8,6.5-45.6,13-45.6
		c7.8,0,13,20.9,13,45.6c0,27.4,11.7,62.6,28.7,84.7c23.5,32.6,26.1,43,13,71.7C674.1,1281.6,606.3,1281.6,585.4,1236z"/>
	<path class="st0" d="M516.4,924.6C317,875,169.7,714.7,130.6,506.2c-31.3-169.4,11.7-290.6,123.8-345.4
		c75.6-36.5,151.2-31.3,267.2,19.5c100.3,43,170.7,39.1,273.7-11.7c173.3-88.6,346.7,9.1,362.3,203.3
		C1186.2,727.8,859.1,1009.3,516.4,924.6z M460.3,712.1c26.1-23.5,32.6-118.6,10.4-161.6c-16.9-30-69.1-32.6-96.4-3.9
		c-27.4,26.1-27.4,121.2,0,159C397.8,739.5,427.8,742.1,460.3,712.1z M906,705.6c27.4-37.8,27.4-132.9,0-159
		c-27.4-28.7-79.5-26.1-96.4,3.9c-33.9,65.2-1.3,183.8,52.1,183.8C874.8,734.3,895.6,721.3,906,705.6z M602.4,490.6
		c35.2-20.9,40.4-20.9,75.6,0c41.7,24.8,73,18.2,93.8-18.2c28.7-56-41.7-116-135.5-116c-52.1,0-69.1,6.5-101.7,37.8
		c-44.3,45.6-46.9,57.3-11.7,92.5C554.2,518,555.5,518,602.4,490.6z"/>
	<path class="st0" d="M597.2,114c-19.5-19.5-9.1-82.1,16.9-96.4c43-22.2,80.8,5.2,75.6,56c-3.9,35.2-9.1,41.7-43,45.6
		C624.5,121.8,602.4,119.2,597.2,114z"/>
</g>
</svg>
