<?xml version="1.0" encoding="utf-8"?>
<!-- Generator: Adobe Illustrator 25.4.1, SVG Export Plug-In . SVG Version: 6.00 Build 0)  -->
<svg version="1.1" id="Layer_1" xmlns="http://www.w3.org/2000/svg" xmlns:xlink="http://www.w3.org/1999/xlink" x="0px" y="0px"
	 viewBox="0 0 128 128" style="enable-background:new 0 0 128 128;" xml:space="preserve">
<style type="text/css">
	.st0{fill:#50C878;}
</style>
<g transform="translate(0.000000,128.000000) scale(0.100000,-0.100000)">
	<path class="st0" d="M598,1235c-10-22-8-30,10-55c13-17,22-44,22-65c0-19,5-35,10-35c6,0,10,16,10,35c0,21,9,48,22,65
		c18,25,20,33,10,55C666,1270,614,1270,598,1235z"/>
	<path class="st0" d="M545,996c-153-38-266-161-296-321c-24-130,9-223,95-265c58-28,116-24,205,15c77,33,131,30,210-9
		c133-68,266,7,278,156C1059,845,808,1061,545,996z M502,833c20-18,25-91,8-124c-13-23-53-25-74-3c-21,20-21,93,0,122
		C454,854,477,856,502,833z M844,828c21-29,21-102,0-122c-21-22-61-20-74,3c-26,50-1,141,40,141C820,850,836,840,844,828z M611,663
		c27-16,31-16,58,0c32,19,56,14,72-14c22-43-32-89-104-89c-40,0-53,5-78,29c-34,35-36,44-9,71C574,684,575,684,611,663z"/>
	<path class="st0" d="M607,374c-15-15-7-63,13-74c33-17,62,4,58,43c-3,27-7,32-33,35C628,380,611,378,607,374z"/>
</g>
</svg>
